G04*
G04 #@! TF.GenerationSoftware,Altium Limited,Altium Designer,20.0.9 (164)*
G04*
G04 Layer_Color=8421504*
%FSLAX25Y25*%
%MOIN*%
G70*
G01*
G75*
%ADD23R,0.03937X0.05906*%
%ADD24R,0.02362X0.03543*%
%ADD25R,0.02362X0.03543*%
%ADD26R,0.02362X0.03543*%
%ADD27R,0.02362X0.03543*%
%ADD28R,0.03150X0.03150*%
%ADD29R,0.02126X0.01968*%
G04:AMPARAMS|DCode=30|XSize=78.74mil|YSize=15.75mil|CornerRadius=3.94mil|HoleSize=0mil|Usage=FLASHONLY|Rotation=0.000|XOffset=0mil|YOffset=0mil|HoleType=Round|Shape=RoundedRectangle|*
%AMROUNDEDRECTD30*
21,1,0.07874,0.00787,0,0,0.0*
21,1,0.07087,0.01575,0,0,0.0*
1,1,0.00787,0.03543,-0.00394*
1,1,0.00787,-0.03543,-0.00394*
1,1,0.00787,-0.03543,0.00394*
1,1,0.00787,0.03543,0.00394*
%
%ADD30ROUNDEDRECTD30*%
G04:AMPARAMS|DCode=31|XSize=118.11mil|YSize=78.74mil|CornerRadius=19.68mil|HoleSize=0mil|Usage=FLASHONLY|Rotation=0.000|XOffset=0mil|YOffset=0mil|HoleType=Round|Shape=RoundedRectangle|*
%AMROUNDEDRECTD31*
21,1,0.11811,0.03937,0,0,0.0*
21,1,0.07874,0.07874,0,0,0.0*
1,1,0.03937,0.03937,-0.01968*
1,1,0.03937,-0.03937,-0.01968*
1,1,0.03937,-0.03937,0.01968*
1,1,0.03937,0.03937,0.01968*
%
%ADD31ROUNDEDRECTD31*%
%ADD32R,0.01968X0.01968*%
%ADD33R,0.03150X0.03150*%
%ADD34R,0.01968X0.02126*%
%ADD35R,0.02165X0.03937*%
%ADD36R,0.05118X0.03937*%
%ADD37R,0.02000X0.04000*%
%ADD38R,0.05906X0.01575*%
%ADD39R,0.06693X0.09843*%
%ADD40R,0.11221X0.12598*%
%ADD41R,0.01968X0.01968*%
%ADD42R,0.14961X0.23000*%
%ADD43R,0.07284X0.05118*%
%ADD44R,0.03937X0.05118*%
%ADD45R,0.05512X0.06496*%
%ADD46R,0.07087X0.04724*%
%ADD47R,0.22441X0.06299*%
%ADD48R,0.02362X0.03347*%
%ADD49R,0.02362X0.08000*%
%ADD50R,0.02362X0.02953*%
%ADD51R,0.18110X0.16221*%
%ADD52R,0.02165X0.01968*%
%ADD53R,0.03937X0.02362*%
%ADD54R,0.07500X0.03000*%
%ADD55R,0.09449X0.12205*%
%ADD56R,0.05709X0.04331*%
%ADD57R,0.02362X0.03937*%
%ADD58R,0.03543X0.03150*%
%ADD59R,0.07606X0.02362*%
%ADD60R,0.04134X0.02362*%
%ADD61R,0.04000X0.02000*%
%ADD62R,0.06299X0.12598*%
%ADD63R,0.04134X0.06693*%
%ADD64R,0.01575X0.03150*%
%ADD65R,0.03150X0.01575*%
%ADD66R,0.07087X0.01181*%
%ADD67R,0.01181X0.07087*%
%ADD68R,0.01500X0.07000*%
D23*
X84012Y66645D02*
D03*
X84012Y59165D02*
D03*
X78500Y66645D02*
D03*
X72988Y66645D02*
D03*
X78500Y59165D02*
D03*
X72988Y59165D02*
D03*
D24*
X71944Y186127D02*
D03*
X78637D02*
D03*
X71944Y177073D02*
D03*
X78637D02*
D03*
X75291Y181600D02*
D03*
D25*
X75291Y186127D02*
D03*
D26*
Y177073D02*
D03*
D27*
X78637Y181600D02*
D03*
X71944D02*
D03*
D28*
X154426Y5822D02*
D03*
Y12121D02*
D03*
X181388Y5822D02*
D03*
Y12121D02*
D03*
X163413Y5822D02*
D03*
Y12121D02*
D03*
X172400Y5822D02*
D03*
Y12121D02*
D03*
X208622Y171964D02*
D03*
Y177870D02*
D03*
X213453Y172003D02*
D03*
Y177909D02*
D03*
X199778Y167546D02*
D03*
Y173451D02*
D03*
X194748Y167546D02*
D03*
Y173451D02*
D03*
X202501Y198245D02*
D03*
Y192339D02*
D03*
X129300Y215747D02*
D03*
Y221653D02*
D03*
X66300Y215747D02*
D03*
Y221653D02*
D03*
X191800Y215747D02*
D03*
Y221653D02*
D03*
X316800Y215747D02*
D03*
Y221653D02*
D03*
X379300Y215747D02*
D03*
Y221653D02*
D03*
X254300Y215747D02*
D03*
Y221653D02*
D03*
X207700Y198098D02*
D03*
Y192192D02*
D03*
X187679Y151234D02*
D03*
Y157139D02*
D03*
X187679Y139847D02*
D03*
Y145753D02*
D03*
X112500Y63653D02*
D03*
Y57747D02*
D03*
X170200Y81747D02*
D03*
Y87653D02*
D03*
X156000Y81847D02*
D03*
X156000Y87753D02*
D03*
X70700Y81247D02*
D03*
X70700Y87153D02*
D03*
X174700Y87653D02*
D03*
Y81747D02*
D03*
X165500Y81747D02*
D03*
Y87653D02*
D03*
X160700Y81747D02*
D03*
Y87653D02*
D03*
X147882Y59453D02*
D03*
Y53547D02*
D03*
X163600Y187550D02*
D03*
X163600Y193850D02*
D03*
X157517Y187550D02*
D03*
Y193850D02*
D03*
X151433Y187550D02*
D03*
X151433Y193850D02*
D03*
X145350Y187550D02*
D03*
Y193850D02*
D03*
X374100Y221653D02*
D03*
Y215747D02*
D03*
X311600Y221653D02*
D03*
Y215747D02*
D03*
X249100Y221653D02*
D03*
Y215747D02*
D03*
X186600Y221653D02*
D03*
Y215747D02*
D03*
X124100D02*
D03*
Y221653D02*
D03*
X61100D02*
D03*
Y215747D02*
D03*
D29*
X160831Y29884D02*
D03*
Y25947D02*
D03*
X171279Y29968D02*
D03*
Y26031D02*
D03*
X175800Y29969D02*
D03*
Y26032D02*
D03*
X339400Y49098D02*
D03*
Y53035D02*
D03*
X315300Y49132D02*
D03*
Y53069D02*
D03*
X335300Y53035D02*
D03*
Y49098D02*
D03*
X319253Y53069D02*
D03*
Y49132D02*
D03*
X166700Y29969D02*
D03*
Y26032D02*
D03*
X106900Y143865D02*
D03*
Y139928D02*
D03*
X411500Y63141D02*
D03*
Y67078D02*
D03*
X258169Y128427D02*
D03*
Y124490D02*
D03*
X252984Y128353D02*
D03*
Y124416D02*
D03*
X106900Y151849D02*
D03*
Y147912D02*
D03*
Y159869D02*
D03*
Y155931D02*
D03*
X224996Y77737D02*
D03*
Y73800D02*
D03*
X221096D02*
D03*
Y77737D02*
D03*
X217273D02*
D03*
Y73800D02*
D03*
X241328Y77671D02*
D03*
Y73734D02*
D03*
X237428D02*
D03*
Y77671D02*
D03*
X233528D02*
D03*
Y73734D02*
D03*
X228896Y73800D02*
D03*
Y77737D02*
D03*
X261698Y77737D02*
D03*
Y73800D02*
D03*
X258000D02*
D03*
Y77737D02*
D03*
X250282Y77737D02*
D03*
Y73800D02*
D03*
X245128Y73734D02*
D03*
Y77671D02*
D03*
X254082Y73800D02*
D03*
Y77737D02*
D03*
D30*
X439600Y265811D02*
D03*
Y261874D02*
D03*
Y257937D02*
D03*
Y254000D02*
D03*
Y250063D02*
D03*
Y246126D02*
D03*
Y242189D02*
D03*
Y238252D02*
D03*
Y234315D02*
D03*
Y230378D02*
D03*
D31*
X451411Y279591D02*
D03*
Y216598D02*
D03*
D32*
X328969Y68774D02*
D03*
X325031D02*
D03*
X328969Y64800D02*
D03*
X325031D02*
D03*
X111632Y139822D02*
D03*
X115568D02*
D03*
X409068Y115000D02*
D03*
X405131D02*
D03*
X115269Y156000D02*
D03*
X111331D02*
D03*
X409068Y119500D02*
D03*
X405131D02*
D03*
D33*
X145753Y104000D02*
D03*
X139847D02*
D03*
X155547Y76900D02*
D03*
X161453D02*
D03*
X125847Y77000D02*
D03*
X131753Y77000D02*
D03*
X363747Y42600D02*
D03*
X369653D02*
D03*
X286447Y27200D02*
D03*
X292353D02*
D03*
X403547Y27600D02*
D03*
X409453D02*
D03*
X322647Y27400D02*
D03*
X328553D02*
D03*
X363847Y27400D02*
D03*
X369753D02*
D03*
D34*
X240033Y119709D02*
D03*
X243970D02*
D03*
X406732Y90784D02*
D03*
X410669D02*
D03*
X111331Y159869D02*
D03*
X115268D02*
D03*
D35*
X330993Y59882D02*
D03*
X323513Y59882D02*
D03*
X327253Y49252D02*
D03*
X323513D02*
D03*
X330993D02*
D03*
X193560Y157215D02*
D03*
X201040D02*
D03*
X197300Y157215D02*
D03*
X201040Y146585D02*
D03*
X193560Y146585D02*
D03*
D36*
X142200Y59672D02*
D03*
Y52128D02*
D03*
D37*
X109324Y195145D02*
D03*
X106175D02*
D03*
X103000D02*
D03*
X99800D02*
D03*
X99800Y188200D02*
D03*
X103000Y188200D02*
D03*
X106175D02*
D03*
X109324D02*
D03*
X124224Y188200D02*
D03*
X121075D02*
D03*
X117900Y188200D02*
D03*
X114700Y188200D02*
D03*
Y195145D02*
D03*
X117900D02*
D03*
X121075D02*
D03*
X124224D02*
D03*
X129776Y195400D02*
D03*
X132925D02*
D03*
X136100Y195400D02*
D03*
X139300Y195400D02*
D03*
Y188455D02*
D03*
X136100Y188455D02*
D03*
X132925Y188455D02*
D03*
X129776D02*
D03*
D38*
X192930Y181050D02*
D03*
Y183550D02*
D03*
Y186050D02*
D03*
Y188550D02*
D03*
Y191050D02*
D03*
Y193550D02*
D03*
Y196050D02*
D03*
Y198550D02*
D03*
X171670Y181050D02*
D03*
Y183550D02*
D03*
Y186050D02*
D03*
Y188550D02*
D03*
Y191050D02*
D03*
Y193550D02*
D03*
Y196050D02*
D03*
Y198550D02*
D03*
D39*
X95500Y140926D02*
D03*
Y156674D02*
D03*
D40*
X127386Y120100D02*
D03*
X150614D02*
D03*
D41*
X415400Y63032D02*
D03*
Y66969D02*
D03*
X346000Y49332D02*
D03*
Y53268D02*
D03*
X394500Y51032D02*
D03*
Y54969D02*
D03*
X349900Y49332D02*
D03*
Y53268D02*
D03*
X347400Y134968D02*
D03*
Y131032D02*
D03*
X390600Y54969D02*
D03*
Y51032D02*
D03*
X353900Y53268D02*
D03*
Y49332D02*
D03*
X386700Y51032D02*
D03*
Y54969D02*
D03*
X404800Y70031D02*
D03*
Y73968D02*
D03*
X343000Y134968D02*
D03*
Y131032D02*
D03*
D42*
X165050Y111700D02*
D03*
X196350Y111700D02*
D03*
D43*
X133900Y144291D02*
D03*
Y155709D02*
D03*
X179649Y155509D02*
D03*
Y144092D02*
D03*
X170473Y143991D02*
D03*
Y155409D02*
D03*
X96100Y65609D02*
D03*
X96100Y54191D02*
D03*
X105200Y65609D02*
D03*
Y54191D02*
D03*
X190600Y86709D02*
D03*
X190600Y75291D02*
D03*
X181500Y86709D02*
D03*
Y75291D02*
D03*
D44*
X201140Y140500D02*
D03*
X193660D02*
D03*
X409240Y33400D02*
D03*
X401760D02*
D03*
X328540Y33200D02*
D03*
X321060D02*
D03*
X369903Y33200D02*
D03*
X362422D02*
D03*
X292300Y33400D02*
D03*
X284820D02*
D03*
D45*
X63600Y68802D02*
D03*
Y81598D02*
D03*
D46*
X199500Y86805D02*
D03*
X199500Y74994D02*
D03*
D47*
X152100Y157352D02*
D03*
Y138848D02*
D03*
D48*
X71000Y75700D02*
D03*
D49*
X76000Y78200D02*
D03*
X81000Y78200D02*
D03*
X86000D02*
D03*
D50*
Y53082D02*
D03*
X81000D02*
D03*
X76000D02*
D03*
X71000D02*
D03*
D51*
X78500Y62609D02*
D03*
D52*
X68704Y64579D02*
D03*
X88296Y64380D02*
D03*
D53*
X111705Y144160D02*
D03*
Y147900D02*
D03*
Y151640D02*
D03*
X122532D02*
D03*
X122532Y147900D02*
D03*
X122532Y144160D02*
D03*
D54*
X126354Y98000D02*
D03*
Y93000D02*
D03*
X126354Y88000D02*
D03*
X126354Y83000D02*
D03*
X147500Y98000D02*
D03*
Y93000D02*
D03*
X147500Y88000D02*
D03*
X147500Y83000D02*
D03*
D55*
X136779Y90500D02*
D03*
D56*
X120531Y60040D02*
D03*
Y52560D02*
D03*
D57*
X127760Y61639D02*
D03*
X131500Y61639D02*
D03*
X135240Y61639D02*
D03*
X135240Y50812D02*
D03*
X131500D02*
D03*
X127760D02*
D03*
D58*
X399000Y55656D02*
D03*
Y50144D02*
D03*
D59*
X89200Y189100D02*
D03*
Y184100D02*
D03*
Y179100D02*
D03*
X89200Y174100D02*
D03*
D60*
X64956D02*
D03*
X64956Y179100D02*
D03*
Y184100D02*
D03*
X64956Y189100D02*
D03*
D61*
X389945Y258976D02*
D03*
Y262125D02*
D03*
Y265300D02*
D03*
Y268500D02*
D03*
X383000D02*
D03*
Y265300D02*
D03*
Y262125D02*
D03*
Y258976D02*
D03*
X327445D02*
D03*
Y262125D02*
D03*
Y265300D02*
D03*
Y268500D02*
D03*
X320500D02*
D03*
Y265300D02*
D03*
Y262125D02*
D03*
Y258976D02*
D03*
X264945D02*
D03*
Y262125D02*
D03*
Y265300D02*
D03*
Y268500D02*
D03*
X258000D02*
D03*
Y265300D02*
D03*
Y262125D02*
D03*
Y258976D02*
D03*
X202445D02*
D03*
Y262125D02*
D03*
Y265300D02*
D03*
Y268500D02*
D03*
X195500D02*
D03*
Y265300D02*
D03*
Y262125D02*
D03*
Y258976D02*
D03*
X139945D02*
D03*
Y262125D02*
D03*
Y265300D02*
D03*
Y268500D02*
D03*
X133000D02*
D03*
Y265300D02*
D03*
Y262125D02*
D03*
Y258976D02*
D03*
X77545D02*
D03*
Y262125D02*
D03*
Y265300D02*
D03*
Y268500D02*
D03*
X70600D02*
D03*
Y265300D02*
D03*
Y262125D02*
D03*
Y258976D02*
D03*
D62*
X93190Y265689D02*
D03*
Y285374D02*
D03*
X155590D02*
D03*
Y265689D02*
D03*
X218090D02*
D03*
Y285374D02*
D03*
X405590Y265689D02*
D03*
Y285374D02*
D03*
X343090Y265689D02*
D03*
Y285374D02*
D03*
X280590Y265689D02*
D03*
Y285374D02*
D03*
D63*
X253572Y59600D02*
D03*
X258690D02*
D03*
X242002Y59534D02*
D03*
X236883D02*
D03*
X220136Y59500D02*
D03*
X225254D02*
D03*
D64*
X259970Y55390D02*
D03*
X257411D02*
D03*
X254852D02*
D03*
X252293D02*
D03*
Y66512D02*
D03*
X254852D02*
D03*
X257411D02*
D03*
X259970D02*
D03*
X243282Y66446D02*
D03*
X240723D02*
D03*
X238164D02*
D03*
X235605D02*
D03*
Y55324D02*
D03*
X238164D02*
D03*
X240723D02*
D03*
X243282D02*
D03*
X226534Y55290D02*
D03*
X223975D02*
D03*
X221416D02*
D03*
X218857D02*
D03*
Y66412D02*
D03*
X221416D02*
D03*
X223975D02*
D03*
X226534D02*
D03*
D65*
X261432Y61039D02*
D03*
X250932Y61000D02*
D03*
X234243Y60934D02*
D03*
X244743Y60972D02*
D03*
X227996Y60939D02*
D03*
X217496Y60900D02*
D03*
D66*
X337839Y70378D02*
D03*
Y72346D02*
D03*
Y74315D02*
D03*
Y76283D02*
D03*
Y78252D02*
D03*
Y80221D02*
D03*
Y82189D02*
D03*
Y84158D02*
D03*
X337839Y86126D02*
D03*
X337839Y88095D02*
D03*
Y90063D02*
D03*
X337839Y92032D02*
D03*
X337839Y94000D02*
D03*
Y95969D02*
D03*
Y97937D02*
D03*
Y99906D02*
D03*
Y101874D02*
D03*
Y103843D02*
D03*
Y105811D02*
D03*
Y107780D02*
D03*
Y109748D02*
D03*
Y111717D02*
D03*
Y113685D02*
D03*
Y115654D02*
D03*
Y117622D02*
D03*
X397288D02*
D03*
Y115654D02*
D03*
Y113685D02*
D03*
Y111717D02*
D03*
Y109748D02*
D03*
Y107780D02*
D03*
Y105811D02*
D03*
Y103843D02*
D03*
Y101874D02*
D03*
Y99906D02*
D03*
Y97937D02*
D03*
Y95969D02*
D03*
Y94000D02*
D03*
X397287Y92032D02*
D03*
Y90063D02*
D03*
Y88095D02*
D03*
Y86126D02*
D03*
X397288Y84158D02*
D03*
X397287Y82189D02*
D03*
X397288Y80221D02*
D03*
Y78252D02*
D03*
Y76283D02*
D03*
Y74315D02*
D03*
Y72346D02*
D03*
Y70378D02*
D03*
D67*
X343941Y123724D02*
D03*
X345910D02*
D03*
X347878Y123724D02*
D03*
X349847Y123724D02*
D03*
X351815Y123724D02*
D03*
X353783D02*
D03*
X355752D02*
D03*
X357720D02*
D03*
X359689D02*
D03*
X361658D02*
D03*
X363626D02*
D03*
X365595D02*
D03*
X367563D02*
D03*
X369531Y123724D02*
D03*
X371500Y123724D02*
D03*
X373468Y123724D02*
D03*
X375437D02*
D03*
X377406D02*
D03*
X379374D02*
D03*
X381343D02*
D03*
X383311D02*
D03*
X385279D02*
D03*
X387248D02*
D03*
X389216D02*
D03*
X391185D02*
D03*
Y64276D02*
D03*
X389216D02*
D03*
X387248D02*
D03*
X385279D02*
D03*
X383311D02*
D03*
X381343D02*
D03*
X379374D02*
D03*
X377406D02*
D03*
X375437D02*
D03*
X373468D02*
D03*
X371500D02*
D03*
X369531D02*
D03*
X367563Y64276D02*
D03*
X365595D02*
D03*
X363626D02*
D03*
X361658D02*
D03*
X359689D02*
D03*
X357720D02*
D03*
X355752Y64276D02*
D03*
X353783Y64276D02*
D03*
X351815D02*
D03*
X349847Y64276D02*
D03*
X347878D02*
D03*
X345910D02*
D03*
X343941D02*
D03*
D68*
X362560Y49800D02*
D03*
X366600D02*
D03*
X370640D02*
D03*
M02*
