G04*
G04 #@! TF.GenerationSoftware,Altium Limited,Altium Designer,20.0.9 (164)*
G04*
G04 Layer_Color=128*
%FSLAX25Y25*%
%MOIN*%
G70*
G01*
G75*
%ADD64R,0.01575X0.03150*%
%ADD65R,0.03150X0.01575*%
%ADD170R,0.05000X0.02500*%
%ADD171R,0.13228X0.19134*%
%ADD172R,0.05472X0.05512*%
%ADD173R,0.07087X0.09843*%
%ADD174R,0.02362X0.03937*%
D64*
X43600Y247261D02*
D03*
X43561Y236761D02*
D03*
X43600Y267461D02*
D03*
X43561Y256961D02*
D03*
X43600Y227400D02*
D03*
X43561Y216900D02*
D03*
D65*
X37951Y245800D02*
D03*
X37951Y243241D02*
D03*
X37951Y240682D02*
D03*
X37951Y238123D02*
D03*
X49073Y238123D02*
D03*
X49073Y240682D02*
D03*
X49073Y243241D02*
D03*
X49073Y245800D02*
D03*
X37951Y266000D02*
D03*
X37951Y263441D02*
D03*
X37951Y260882D02*
D03*
X37951Y258323D02*
D03*
X49073Y258323D02*
D03*
X49073Y260882D02*
D03*
X49073Y263441D02*
D03*
X49073Y266000D02*
D03*
X37951Y225939D02*
D03*
X37951Y223379D02*
D03*
X37951Y220820D02*
D03*
X37951Y218261D02*
D03*
X49073D02*
D03*
X49073Y220820D02*
D03*
X49073Y223379D02*
D03*
X49073Y225939D02*
D03*
D170*
X362520Y158969D02*
D03*
X362520Y155769D02*
D03*
Y152569D02*
D03*
X390400Y158969D02*
D03*
Y155769D02*
D03*
Y152569D02*
D03*
X306460Y158969D02*
D03*
X306460Y155769D02*
D03*
Y152569D02*
D03*
X334840Y158969D02*
D03*
Y155769D02*
D03*
Y152569D02*
D03*
X251200Y158969D02*
D03*
Y155769D02*
D03*
Y152569D02*
D03*
X278680Y158969D02*
D03*
Y155769D02*
D03*
Y152569D02*
D03*
X267600Y83100D02*
D03*
Y79900D02*
D03*
Y76700D02*
D03*
D171*
X46478Y302500D02*
D03*
D172*
X42600Y286853D02*
D03*
X50356D02*
D03*
D173*
X42162Y241961D02*
D03*
X42162Y262161D02*
D03*
X42162Y222100D02*
D03*
D174*
X449000Y51200D02*
D03*
X445700D02*
D03*
X410900Y24100D02*
D03*
X407600D02*
D03*
X370000D02*
D03*
X366700D02*
D03*
X286900D02*
D03*
X283600D02*
D03*
X328553D02*
D03*
X325253D02*
D03*
M02*
