M48
;Layer_Color=9474304
;FILE_FORMAT=2:5
INCH,LZ
;TYPE=PLATED
T1F00S00C0.01200
T2F00S00C0.01500
T3F00S00C0.02000
T4F00S00C0.02500
T5F00S00C0.03000
T6F00S00C0.03543
T7F00S00C0.03600
T8F00S00C0.03800
T9F00S00C0.03937
T10F00S00C0.04000
T11F00S00C0.04016
T13F00S00C0.05118
T14F00S00C0.05200
T15F00S00C0.09100
T16F00S00C0.11811
%
T01
X03736Y00239
X03758Y00423
X03831Y00435
X0388426Y00463
X039309
X04028Y005
X04199Y0048323
X04146Y0023979
X0403547Y0023953
X03633Y0023753
X03666Y00387
X03584Y00511
X0341339Y0042661
X03331Y00332
X0332347Y0023753
X0322131
X03094Y0028263
X03105Y0048869
X0321651Y0042377
X02897Y00238
X02803Y00234
X01818Y0022185
X0185677Y0017779
X01865Y0006322
X014785
X0164211Y0029969
X0147882Y0049782
X0141786Y0069785
X013846Y007288
X0131604Y00657
X0125854Y0101289
X0139847Y0107289
X0158132Y00925
X0164068Y0092469
X01692Y00925
X0169335Y0061617
X02081Y0123326
X0206984Y01618
X0205325Y017473
X01985Y01784
X01949Y01782
X01913
X0187268Y018605
X019805Y01849
X02117Y0186807
X01773Y01881
X01776Y01837
X01765Y01934
X01636Y01914
X0157683Y0193806
X0151433Y01914
X014535Y0198885
X01393
X0123285Y0208189
X01097Y02016
X01122Y019895
X00998Y0200052
X0096Y01973
X00924Y01972
X00945Y02062
X00985Y02089
X0102434Y0145428
X01025Y0141381
X0118074Y0139822
X0117274Y014608
X01172Y01495
X016645Y018105
X01653Y0208189
X0189913Y0167319
X0083886Y0088
X00802Y0088105
X0221096Y0080632
X0228896Y0080586
X0237428
X025021Y0081253
X02618Y0082928
X0261648Y0108665
X0257869Y0108547
X0253284Y0108473
X02426Y01153
X022827Y0109098
X02279Y010557
X03144Y01165
X03505Y01164
X03503Y01011
X034715Y0099396
X0344121Y0101033
X03558
X03563Y00927
X0357025Y00756
X036Y0078
X03627Y00754
X03655Y0081002
X0368991Y00821
X03437Y0082
X03459Y00793
X03438Y00765
X0346978Y0070703
X0349847Y0072857
X03531Y0072117
X0346Y00847
X0336Y0063
X03355Y0059685
X0331987Y0066787
X03207Y007505
X03141Y0074
X0316Y0080221
X0339463Y0131032
X0363626Y0130474
X0362385Y013557
X03651Y013795
X0368154Y01363
X0367679Y01147
X03268Y01443
X0362422Y01943
X0278874Y020291
X023Y02065
X02169Y01971
X0400976Y0202283
X0413657Y0198778
X0411456Y020809
X0431808Y0188061
X0411948Y01296
X04093Y01268
X0405131Y01227
X0412243Y01151
X0385877Y0115377
X03809Y0116
X03797Y0108018
X03806Y01047
X0385009Y01053
X03885Y01081
X0388729Y01023
X03861Y009935
X0385369Y00915
X03887Y00902
X03897Y0087006
X03726Y0086
X0373Y00821
X0371646Y00706
X03759Y0071596
X0395222Y00671
X0408137Y00732
X0419222Y0070536
X0423Y0070532
X0425132Y00831
X04247Y0096568
X04154Y0090731
X04115Y006
X04199Y0057651
Y0052987
X03837Y00551
X0370987Y0115213
X03723Y01383
X03782Y01382
X0381289Y01367
X03843Y01338
X0391185Y0140215
X0397675Y0210523
X0400201Y0213473
X0407451Y0215927
X0383153Y0215877
X03793Y0225
X0383Y02711
X03205
X03168Y02252
X0307603Y0221653
X0304447Y0211147
X0320153Y0215747
X03481Y0215679
X0369Y0222
X02576Y02158
X02543Y0225
X0242118Y0221582
X0258Y02711
X01955
X01918Y0225368
X0182965Y02218
X0176Y02198
X0162686Y02212
X0134312Y0224302
X01292Y02248
X0120447Y0221653
X00956Y0217
X0098143Y02142
X00958Y02115
X0069548Y0215747
X00706Y02711
X0133
X0049Y0255
X00492Y02347
X00483Y02134
T02
X03956Y0028974
X0395484Y003337
X0453631Y00512
X0353882Y004447
X0353872Y003743
X0345982Y004447
X0299Y002553
X02759Y00265
X0140677Y0032779
X0110677
X0065677Y0017779
X0050677Y0032779
X0035677Y004778
X0020677
Y0032779
X0035677Y0137779
X0127059Y0143549
Y0146949
X0125677Y010778
X0140677Y007778
X0147882Y0063382
X01315Y00558
X0211446Y00624
X0211503Y0068474
X0207612Y01314
Y01352
X0203812
Y01314
X0200012
Y01352
X0187679Y0160793
X0110677Y018278
X0095677
X02514Y0175546
X0251356Y0170545
X0251131Y0162709
X02468Y0152569
X027458
X02743Y0159
X0278611Y0162526
X0278389Y0168832
Y0173248
X0304251Y0170153
X0306391Y0162526
X030176Y0158969
X030236Y0152569
X03345Y01496
Y016318
X0362Y01632
X03402Y0126458
X03352Y01302
X0321031Y010947
X032476Y010557
X0317182Y00945
X03269Y0059947
X0267334Y0064665
X026547Y006844
X02672Y00731
X0254279Y0070402
X0243475Y0070438
X0237591Y0070336
X0227107Y0070302
X0220843
X02476Y0066191
X02643Y0094821
X0372088Y0147512
X03904Y01478
X0397675Y0143026
X0397812Y0138343
X0390337Y0163001
X04479Y0196
X044777Y02012
X044763Y02061
X041985Y006247
X04354Y02148
X0435513Y02206
X04014Y0263558
Y0267558
X03984Y0265558
Y0269557
X040009Y0280532
Y0284532
X0400135Y0288523
X040009Y0292532
X039709Y0290532
Y0286532
Y0282532
X033759Y0280532
Y0284532
X0337635Y0288523
X033759Y0292532
X033459Y0290532
Y0286532
Y0282532
X03359Y0269557
Y0265558
X03389Y0263558
Y0267558
X03505Y0222321
X03555Y0222226
X0290824Y0222508
X0285834
X0281
X02764Y0263558
Y0267558
X02734Y0265558
Y0269557
X027509Y0280532
Y0284532
X0275135Y0288523
X027509Y0292532
X027209Y0290532
Y0286532
Y0282532
X0232216Y02216
X02266Y022155
X02139Y0263558
Y0267558
X02109Y0265558
Y0269557
X021259Y0280532
Y0284532
X0212635Y0288523
X021259Y0292532
X020959Y0290532
Y0286532
Y0282532
X015009Y0284532
Y0280532
X014709Y0282532
Y0286532
Y0290532
X015009Y0292532
X0150135Y0288523
X01484Y0269557
Y0265558
X01514Y0267558
Y0263558
X0142577Y02231
X0089Y0263558
Y0267558
X0086Y0265558
Y0269557
X008769Y0280532
Y0284532
X0087735Y0288523
X008769Y0292532
X008469Y0290532
Y0286532
Y0282532
X00525Y0270279
Y026584
Y02614
X00526Y02524
T03
X02135Y0026038
X00535Y01729
Y01789
X00475
X00415
Y01849
Y01909
Y01969
X00475
Y01909
Y01849
X00535
Y01909
Y01969
X00595
X00655
X00715
X00775
Y01909
X00715
X00655
X00595
Y01849
Y01789
Y01729
Y01669
X00655
X00715
X00775
Y01729
X00715
X00655
X0091632Y01669
X0097632
Y01729
Y01789
X0103631
X0109632
X0115631
Y01729
X0109632
X0103631
Y01669
X0109632
X0115631
X01287Y0167
X01347
X01407
X01467
X0152669
X0158669
X0164669
X0170669
X017009Y01599
X016479
X017539
X018089
X01607Y01452
Y01392
X01547
X01487
X01427
Y01452
X01487
X01547
X0154796Y0131
X0148796
X0142827
X0136827
X0130827
X0124827
X0125529Y0155
X01279Y01591
X01231
X0101957Y01595
Y01544
X00978Y01512
X0160796Y0131
X0166796
X02024Y0185099
X02077Y01846
X00427Y02356
X00378Y0235564
Y0248359
X00427
T04
X0043Y0316
Y0321
X0048
X0053
X0058
Y0316
X0053
X0048
Y0326
X0053
X0058
Y0331
X0053
X0048
X0043
Y0326
Y0336
X0048
X0053
X0058
T05
X0179715Y0047693
T06
X02577Y01923
X02677
X02856
X02956
X03133
X03233
X03411
X03511
X0368818
X0378818
X03967
X04067
X03977Y02186
X03877
X037509Y0231532
Y0241532
Y0251532
Y0261532
Y0271532
Y0281532
Y0291532
Y0301532
X038509
X039509
X040509
X042509
Y0291532
Y0281532
Y0271532
Y0261532
Y0251532
Y0241532
Y0231532
X039009Y0294532
X036259Y0291532
Y0301532
Y0281532
Y0271532
Y0261532
Y0251532
Y0241532
Y0231532
X03352Y02186
X03252
X031259Y0231532
Y0241532
Y0251532
Y0261532
Y0271532
Y0281532
Y0291532
Y0301532
X032259
X033259
X034259
X032759Y0294532
X030009Y0291532
Y0301532
Y0281532
Y0271532
Y0261532
Y0251532
Y0241532
Y0231532
X02727Y02186
X02627
X025009Y0231532
Y0241532
Y0251532
Y0261532
Y0271532
Y0281532
Y0291532
Y0301532
X026009
X027009
X028009
X026509Y0294532
X023759Y0291532
Y0301532
Y0281532
Y0271532
Y0261532
Y0251532
Y0241532
Y0231532
X021759Y0301532
X020759
X019759
X018759
Y0291532
Y0281532
Y0271532
Y0261532
Y0251532
Y0241532
Y0231532
X017509
Y0241532
Y0251532
Y0261532
Y0271532
Y0281532
Y0291532
Y0301532
X015509
X014509
X013509
X012509
Y0291532
Y0281532
Y0271532
Y0261532
Y0251532
Y0241532
Y0231532
X011269
Y0241532
Y0251532
Y0261532
Y0271532
Y0281532
Y0291532
Y0301532
X009269
X008269
X007269
X006269
Y0291532
Y0281532
Y0271532
Y0261532
Y0251532
Y0241532
Y0231532
X00753Y02186
X00853
X01377
X01477
X02002
X02102
X020259Y0294532
X014009
X007769
T07
X0436Y0063
X0446
Y0073
X0436
Y0083
X0446
Y0093
X0436
Y0103
X0446
X0446Y01445
Y01545
Y01645
Y01745
Y01845
X0436
Y01745
Y01645
Y01545
Y01445
T08
X0116756Y0031885
Y0039785
X0126677
Y0031885
T09
X0375Y00138
X0385
X04064
X04164
X04264
X0365
X03436
X03336
X03236
X03021
X02921
X02709Y0013842
X02609
X023955
X022955
X02084
X01984
X00725Y0011
X0054783
X02349Y0155769
Y0165769
Y0175769
Y0185769
X0262874Y0175769
Y0165769
Y0155769
X0290648
Y0165769
Y0175769
X0318421
Y0165769
Y0155769
X0346195
Y0165769
Y0175769
X0373969
Y0165769
Y0155769
X0401743
Y0165769
Y0175769
X04005Y0321
X03905
X04105
X04205
X03665
X03565
X03465
X03365
X03125
X03025
X02925
X02825
X02585
X02485
X02385
X02285
X02045
X01945
X01845
X01745
X01505
X01405
X01305
X01205
X00965
X00865
X00765
X00665
T10
X00361Y00395
Y00595
X04508Y023311
Y024311
Y025311
Y026311
T11
X02237Y00429
X02337
X02437
X02549
X02649
X02749
X02861
X02961
X03061
X02126
X02026
X01926
X015883Y0047693
Y0037693
X00851Y0034
X00751
X00651
Y0044
X00751
X00851
X015883Y0057693
X01926Y00545
Y00645
X02026
Y00545
X02759Y0055976
Y0065976
X02859
X02959
X03059
Y0055976
X02959
X02859
X02859Y00798
X02959
X03059
X03059Y00947
Y01047
X02959
X02859
X02759
Y00947
X02859
X02959
Y01186
X03059
X02859
X02759
Y00798
X0244Y0127889
X0234
X0224
X038509Y0231189
Y0241032
Y0250874
X039509
Y0241032
Y0231189
X040509
Y0241032
Y0250874
X041509
Y0241032
Y0231189
X04446Y02942
X04546
Y03042
X04446
X035259Y0250874
Y0241032
Y0231189
X034259
Y0241032
Y0250874
X033259
Y0241032
Y0231189
X032259
Y0241032
Y0250874
X029009
Y0241032
Y0231189
X028009
Y0241032
Y0250874
X027009
Y0241032
Y0231189
X026009
Y0241032
Y0250874
X022759
Y0241032
Y0231189
X021759
Y0241032
Y0250874
X020759
Y0241032
Y0231189
X019759
Y0241032
Y0250874
X016509
Y0241032
Y0231189
X015509
Y0241032
Y0250874
X014509
Y0241032
Y0231189
X013509
Y0241032
Y0250874
X010269
Y0241032
Y0231189
X009269
Y0241032
Y0250874
X008269
Y0241032
Y0231189
X007269
Y0241032
Y0250874
T13
X0077421Y0020843
X0049862
T14
X0027464Y0082622
Y0102622
Y0122705
Y0142706
X0027441Y0162634
Y0182633
Y0202634
Y0222634
Y0242717
Y0262717
Y0282716
Y0302716
T15
X0097976Y0021185
X0145477
T16
X0448701Y0015
X0027441Y0015
X0448701Y0329961
X0027441Y0329961
M30
